<svg width="120" height="80" viewBox="0 0 120 80" fill="none" xmlns="http://www.w3.org/2000/svg">
<!-- Green shield -->
<path d="M5 15L5 35Q5 45 15 50L25 55Q30 57 35 55L45 50Q55 45 55 35L55 15Q55 10 50 10L14 10Q5 10 5 15Z" fill="#4a9d4a"/>
<!-- White symbol in green -->
<path d="M20 20L35 20L35 25L30 25L30 40L35 40L35 45L20 45L20 40L25 40L25 25L20 25Z" fill="white"/>

<!-- Brown shield -->
<path d="M40 5L40 30Q40 40 50 45L60 50Q65 52 70 50L80 45Q90 40 90 30L90 5Q90 2 85 2L45 2Q40 2 40 5Z" fill="#8b5a3c"/>
<!-- White star in brown -->
<path d="M65 12L68 18L75 18L70 22L72 29L65 25L58 29L60 22L55 18L62 18Z" fill="white"/>

<!-- Red shield -->
<path d="M75 15L75 35Q75 45 85 50L95 55Q100 57 105 55L115 50Q125 45 125 35L125 15Q125 10 120 10L84 10Q75 10 75 15Z" fill="#c53030"/>
<!-- White crosses in red -->
<path d="M90 20L95 20L95 25L100 25L100 30L95 30L95 35L90 35L90 30L85 30L85 25L90 25Z" fill="white"/>
<path d="M105 20L110 20L110 25L115 25L115 30L110 30L110 35L105 35L105 30L100 30L100 25L105 25Z" fill="white"/>
</svg>